<svg width="19" height="19" viewBox="0 0 19 19" fill="none" xmlns="http://www.w3.org/2000/svg">
<g clip-path="url(#clip0_97_15)">
<path d="M18.3305 10.9987C18.8973 6.2273 18.0582 3.21501 16.5445 1.85256L16.5453 1.85176C14.1022 -0.474944 5.85145 -0.819319 2.92862 1.95626C1.61604 3.31397 1.1537 5.3066 1.10304 7.77343C1.05237 10.2411 0.992202 14.8636 5.29966 16.1176H5.30362L5.29966 18.0326C5.29966 18.0326 5.27037 18.8085 5.76595 18.9644C6.33279 19.1481 6.58928 18.7879 8.35233 16.6821C11.3005 16.9378 13.5647 16.3519 13.822 16.2664C14.4173 16.0669 17.7858 15.6212 18.3305 10.9987ZM8.64287 15.3346C8.64287 15.3346 6.77691 17.6613 6.19662 18.2654C6.00662 18.4617 5.79841 18.4435 5.80158 18.054C5.80158 17.7983 5.81583 14.8747 5.81583 14.8747C2.16387 13.8281 2.3792 9.89193 2.41879 7.83281C2.45837 5.77289 2.8352 4.08585 3.9467 2.94981C6.51091 0.545514 13.7444 1.08306 15.5874 2.81522C17.8405 4.8126 17.0385 10.4556 17.0432 10.648C16.5801 14.5066 13.8505 14.7512 13.3485 14.9182C13.134 14.9895 11.143 15.5017 8.64287 15.3346Z" fill="#EBEBEB"/>
<path d="M9.67586 3.40165C9.37107 3.40165 9.37107 3.87665 9.67586 3.88061C12.0406 3.89881 13.9881 5.54706 14.0094 8.57044C14.0094 8.88948 14.4765 8.88552 14.4726 8.56648H14.4718C14.4464 5.30877 12.32 3.41986 9.67586 3.40165Z" fill="#EBEBEB"/>
<path d="M12.7856 8.06956C12.7785 8.38464 13.2448 8.39969 13.2487 8.08064C13.2875 6.28435 12.18 4.80473 10.0987 4.64877C9.79388 4.6266 9.76222 5.10556 10.0662 5.12773C11.8712 5.26469 12.822 6.49652 12.7856 8.06956Z" fill="#EBEBEB"/>
<path d="M12.2876 10.1128C11.8965 9.88636 11.4983 10.0273 11.3336 10.2497L10.9893 10.6954C10.8143 10.9219 10.4873 10.8918 10.4873 10.8918C8.10125 10.2608 7.46317 7.7639 7.46317 7.7639C7.46317 7.7639 7.43388 7.42586 7.65238 7.24456L8.08305 6.88831C8.29838 6.71731 8.43455 6.30565 8.21525 5.90111C7.62942 4.84265 7.23596 4.47769 7.03567 4.19744C6.82509 3.93381 6.50842 3.87444 6.17909 4.05256H6.17196C5.48717 4.45315 4.73746 5.20286 4.97734 5.97473C5.38663 6.78856 6.13871 9.38286 8.53588 11.343C9.66242 12.2701 11.4453 13.2201 12.2021 13.4394L12.2092 13.4504C12.955 13.699 13.6801 12.92 14.0673 12.2146V12.2091C14.239 11.8679 14.182 11.5449 13.9311 11.3335C13.4862 10.8997 12.8148 10.4207 12.2876 10.1128Z" fill="#EBEBEB"/>
<path d="M10.4246 6.41561C11.1854 6.45994 11.5543 6.85736 11.5939 7.67357C11.6081 7.99261 12.0713 7.97044 12.057 7.6514C12.0063 6.58582 11.4506 5.99206 10.4499 5.93665C10.1451 5.91844 10.1166 6.3974 10.4246 6.41561Z" fill="#EBEBEB"/>
</g>
<defs>
<clipPath id="clip0_97_15">
<rect width="19" height="19" fill="white"/>
</clipPath>
</defs>
</svg>
