<svg width="19" height="19" viewBox="0 0 19 19" fill="none" xmlns="http://www.w3.org/2000/svg">
<g clip-path="url(#clip0_97_21)">
<path fill-rule="evenodd" clip-rule="evenodd" d="M15.8007 3.17308C14.1342 1.50468 11.918 0.585459 9.55696 0.58448C4.69179 0.58448 0.732245 4.54391 0.730288 9.41039C0.729635 10.966 1.13603 12.4846 1.90847 13.8232L0.65625 18.397L5.3354 17.1695C6.6247 17.8728 8.07621 18.2435 9.55337 18.2439H9.55707C14.4217 18.2439 18.3817 14.2841 18.3835 9.41745C18.3845 7.05891 17.4672 4.84137 15.8007 3.17308ZM9.55696 16.7533H9.55391C8.23754 16.7527 6.94651 16.3989 5.81996 15.7306L5.55219 15.5716L2.77551 16.3L3.51664 13.5928L3.34215 13.3152C2.60775 12.1472 2.21995 10.7971 2.22061 9.41093C2.22213 5.36604 5.51327 2.07523 9.55989 2.07523C11.5194 2.07589 13.3615 2.83996 14.7465 4.22667C16.1316 5.61338 16.894 7.4566 16.8933 9.41691C16.8916 13.4621 13.6006 16.7533 9.55696 16.7533ZM13.5811 11.2587C13.3606 11.1483 12.2762 10.6149 12.074 10.5412C11.872 10.4676 11.7248 10.4309 11.5779 10.6516C11.4308 10.8723 11.0082 11.3692 10.8795 11.5163C10.7508 11.6635 10.6223 11.682 10.4017 11.5715C10.1811 11.4611 9.47052 11.2282 8.62806 10.4768C7.97249 9.89201 7.52989 9.16979 7.40117 8.94909C7.27266 8.72818 7.40008 8.62033 7.49793 8.499C7.73668 8.20252 7.97575 7.89169 8.04924 7.7446C8.12285 7.59739 8.08599 7.46856 8.03076 7.35821C7.97575 7.24786 7.53468 6.1623 7.35094 5.72058C7.17177 5.2907 6.9901 5.34876 6.85464 5.34202C6.72613 5.3356 6.57904 5.3343 6.43194 5.3343C6.28495 5.3343 6.04599 5.38942 5.84377 5.61034C5.64166 5.83114 5.07198 6.36463 5.07198 7.45018C5.07198 8.53574 5.86225 9.58444 5.97249 9.73165C6.08274 9.87886 7.52772 12.1065 9.74004 13.0617C10.2662 13.2891 10.677 13.4247 10.9974 13.5264C11.5257 13.6942 12.0064 13.6705 12.3865 13.6138C12.8103 13.5504 13.6912 13.0802 13.8752 12.5651C14.0589 12.0499 14.0589 11.6084 14.0037 11.5163C13.9487 11.4243 13.8016 11.3692 13.5811 11.2587Z" fill="#EBEBEB"/>
</g>
<defs>
<clipPath id="clip0_97_21">
<rect width="19" height="19" fill="white"/>
</clipPath>
</defs>
</svg>
