<svg width="200" height="32" viewBox="0 0 200 32" fill="none" xmlns="http://www.w3.org/2000/svg">
<g clip-path="url(#clip0_2041_19)">
<path d="M53.4414 23.3584H34.5547C30.4673 23.3584 27.2256 20.0375 27.2256 16.01C27.2256 11.9825 30.5378 8.66162 34.5547 8.66162H53.4414C57.5288 8.66162 60.7706 11.9825 60.7706 16.01C60.7706 20.0375 57.5288 23.3584 53.4414 23.3584ZM34.5547 14.0316C33.4977 14.0316 32.652 14.8795 32.652 15.9393C32.652 16.9992 33.4977 17.8471 34.5547 17.8471H53.4414C54.4985 17.8471 55.3442 16.9992 55.3442 15.9393C55.3442 14.8795 54.4985 14.0316 53.4414 14.0316H34.5547Z" fill="#CCCCCC"/>
<path d="M145.127 0.465189C145.831 0.465189 146.184 0.818476 146.184 1.45439C146.184 1.59571 146.113 1.80768 146.043 2.01965L135.049 30.4946C134.838 31.0598 134.556 31.2718 134.204 31.2718C133.851 31.2718 133.569 31.0598 133.358 30.5652L125.535 14.1727L117.642 30.5652C117.431 31.0598 117.149 31.2718 116.797 31.2718C116.444 31.2718 116.163 30.9892 115.951 30.4946L104.957 1.94899C104.887 1.73702 104.816 1.52505 104.816 1.38373C104.816 1.10111 104.887 0.889133 105.098 0.677161C105.31 0.535846 105.592 0.394531 105.944 0.394531H110.454C111.159 0.394531 111.652 0.747818 111.864 1.38373L117.361 16.4338L124.69 1.17176C124.972 0.677161 125.253 0.465189 125.535 0.465189C125.888 0.465189 126.17 0.677161 126.381 1.17176L133.569 16.5044L139.207 1.45439C139.418 0.747818 139.912 0.465189 140.617 0.465189H145.127Z" fill="#CCCCCC"/>
<path d="M20.8833 0.465332C21.3062 0.465332 21.5881 0.606647 21.7995 0.818619C22.0109 1.03059 22.1519 1.38388 22.1519 1.73716V20.1081C22.1519 22.4398 21.6585 24.4888 20.6719 26.2553C19.6853 28.0217 18.2759 29.3642 16.514 30.2827C14.7522 31.2013 12.638 31.6959 10.242 31.6959C8.05732 31.6959 6.15456 31.2013 4.39274 30.2827C2.7014 29.3642 1.36242 28.0924 0.375801 26.5379C0.0939102 26.1846 0.0234375 25.8313 0.0234375 25.478C0.0234375 24.9834 0.305328 24.6302 0.798637 24.3475L4.39274 22.8637C4.67463 22.7224 4.88605 22.7224 4.95652 22.7224C5.16794 22.7224 5.37936 22.7931 5.52031 22.9344C5.66125 23.0757 5.87267 23.217 6.01361 23.4996C7.0707 25.0541 8.40968 25.8313 10.1715 25.8313C12.0743 25.8313 13.4132 25.3367 14.1884 24.2769C14.9636 23.217 15.3865 21.8745 15.3865 20.1787V1.73716C15.3865 1.31322 15.5274 1.03059 15.7388 0.818619C16.0207 0.606647 16.3731 0.465332 16.7255 0.465332H20.8833Z" fill="#CCCCCC"/>
<path d="M89.1008 0.465332C89.4532 0.465332 89.7351 0.535989 89.876 0.677304C90.0875 0.818619 90.1579 1.03059 90.1579 1.31322C90.1579 1.52519 90.0875 1.80782 89.876 2.01979L78.6709 19.6135V30.0001C78.6709 30.4241 78.5299 30.7067 78.3185 30.9187C78.1071 31.1306 77.7547 31.2719 77.4024 31.2719H73.315C72.8921 31.2719 72.6102 31.1306 72.3988 30.9187C72.1874 30.7067 72.0465 30.3534 72.0465 30.0001V19.6135L60.9118 1.94914C60.7708 1.66651 60.6299 1.45454 60.6299 1.24256C60.6299 0.959934 60.7004 0.818619 60.9118 0.677304C61.2641 0.535989 61.546 0.465332 61.8984 0.465332H66.8315C67.5362 0.465332 68.0295 0.747962 68.3114 1.31322L75.4291 12.9717L82.6173 1.31322C82.8992 0.747962 83.463 0.465332 84.0973 0.465332L89.1008 0.465332Z" fill="#CCCCCC"/>
<path d="M144.493 31.3426C144.14 31.3426 143.858 31.272 143.717 31.1306C143.506 30.9893 143.436 30.7773 143.436 30.4947C143.436 30.3534 143.506 30.0708 143.647 29.7881L158.799 1.17191C159.08 0.747962 159.362 0.465332 159.644 0.465332C160.067 0.465332 160.349 0.677304 160.49 1.17191L175.642 29.8588C175.783 30.1414 175.853 30.3534 175.853 30.5654C175.853 30.848 175.783 30.9893 175.571 31.2013C175.36 31.3426 175.078 31.4133 174.796 31.4133H170.215C169.581 31.4133 169.088 31.06 168.735 30.4241L166.762 26.4672H152.456L150.553 30.4241C150.271 31.06 149.778 31.4133 149.073 31.4133L144.493 31.3426ZM163.591 20.8147L159.644 12.901L155.768 20.8147H163.591Z" fill="#CCCCCC"/>
<path d="M198.756 0.465332C199.108 0.465332 199.39 0.535989 199.531 0.677304C199.743 0.818619 199.813 1.03059 199.813 1.31322C199.813 1.52519 199.743 1.80782 199.531 2.01979L188.326 19.6135V30.0001C188.326 30.4241 188.185 30.7067 187.974 30.9187C187.762 31.1306 187.41 31.2719 187.058 31.2719H182.97C182.547 31.2719 182.265 31.1306 182.054 30.9187C181.843 30.7067 181.702 30.3534 181.702 30.0001V19.6135L170.567 1.94914C170.426 1.66651 170.285 1.45454 170.285 1.24256C170.285 0.959934 170.356 0.818619 170.567 0.677304C170.778 0.535989 171.06 0.465332 171.342 0.465332H176.275C176.98 0.465332 177.473 0.747962 177.755 1.31322L184.873 12.9717L192.061 1.31322C192.343 0.747962 192.907 0.465332 193.541 0.465332L198.756 0.465332Z" fill="#CCCCCC"/>
<path d="M31.877 5.83509C34.8368 2.65551 39.0652 0.606445 43.8573 0.606445C48.6495 0.606445 52.9483 2.58485 55.8377 5.83509H31.877Z" fill="#CCCCCC"/>
<path d="M31.877 26.1846C34.8368 29.3642 39.0652 31.4132 43.8573 31.4132C48.6495 31.4132 52.9483 29.4348 55.8377 26.1846H31.877Z" fill="#CCCCCC"/>
</g>
<defs>
<clipPath id="clip0_2041_19">
<rect width="199.79" height="31.1599" fill="white" transform="translate(0.0234375 0.465332)"/>
</clipPath>
</defs>
</svg>
