<svg width="189" height="77" viewBox="0 0 189 77" fill="none" xmlns="http://www.w3.org/2000/svg">
<g clip-path="url(#clip0_2041_3)">
<path d="M27.0871 30.3583C24.471 31.1844 22.0615 32.3546 19.8584 34.0756C19.1011 34.6263 18.4127 35.2459 17.6554 35.8654C16.6916 36.6915 15.5212 36.6915 14.6951 35.9343C13.9378 35.177 13.869 34.2821 14.5574 33.4561C16.2785 31.5286 18.275 30.0141 20.5469 28.7062C23.163 27.1917 25.9856 26.0903 29.0147 25.5396C29.3589 25.4708 29.4278 25.2643 29.4966 25.0577C30.8047 21.96 32.1127 18.8622 33.4207 15.8333C34.8665 12.6668 36.4499 9.56901 38.7218 6.81546C39.4102 5.9894 40.1675 5.30101 40.9936 4.68146C41.1313 4.61262 41.269 4.54378 41.269 4.33727C40.5805 4.40611 39.9609 4.61262 39.2725 4.81914C34.3157 6.60895 30.2539 9.63785 27.4313 14.25C27.0871 14.8696 26.674 15.4891 26.1921 15.971C25.5037 16.6594 24.6775 17.1413 23.6449 16.9348C22.3368 16.6594 21.7861 15.558 21.7861 14.1812C21.7861 13.3551 22.1303 12.6668 22.5434 12.0472C25.5725 7.98572 29.2901 4.95682 33.8338 2.75397C36.4499 1.51488 39.2037 0.619973 42.0263 0.20694C43.7474 0.00042391 45.4685 -0.0684149 47.2584 0.000423914C48.3599 0.0692627 49.1172 1.23952 48.8419 2.40978C48.7042 3.02933 48.3599 3.5112 47.8092 3.78656C45.1243 4.95682 43.3343 7.09082 41.7509 9.43134C39.6856 12.4602 38.171 15.6957 36.7253 18.9999C35.8991 20.8586 35.1419 22.7172 34.3157 24.5759C34.178 24.9201 34.2469 24.9889 34.5911 24.9889C38.2398 24.9201 41.5444 25.8838 44.4358 28.0866C44.4358 28.0866 44.5047 28.0866 44.5735 28.1555C44.7112 27.3294 44.8489 26.4345 45.0554 25.6084C45.8816 21.6846 46.9142 17.7608 48.7042 14.1812C51.3203 8.88063 54.9001 4.26843 59.6504 0.75765C60.6142 0.000423931 61.9223 0.20694 62.5419 1.10184C63.2991 2.06559 63.0926 3.5112 62.0599 4.13075C59.1685 5.92056 57.1032 8.39875 55.1755 11.0835C52.6971 14.7319 50.7695 18.5869 49.7368 22.9237C49.1861 25.1954 48.9107 27.4671 49.1861 29.8076C49.3926 31.1155 49.8745 32.2858 50.7006 33.3184C51.5268 34.351 51.6645 35.3147 51.0449 36.2096C50.4253 37.1045 49.3238 37.311 48.3599 36.7603C48.1534 36.6915 48.0157 36.485 47.8092 36.485C47.8092 37.311 47.9469 38.0683 48.0846 38.8255C48.5665 41.6479 49.2549 44.4014 50.0811 47.0861C50.4253 48.1876 50.0811 48.9448 49.0484 49.289C48.0157 49.6332 46.9831 49.2201 46.6388 48.1876C46.0192 46.2601 45.5373 44.3326 45.1243 42.4051C44.5735 39.7204 44.0916 36.9668 44.0228 34.2133C44.0228 34.0756 44.0228 33.9379 44.0228 33.8691C44.2293 32.9742 43.7474 32.4235 43.0589 31.9416C40.5805 30.3583 37.8956 29.5323 34.9353 29.2569C34.2469 29.1881 33.5584 29.1881 32.8012 29.1881C32.3881 29.1881 32.1816 29.3257 31.975 29.7388C30.3228 33.4561 28.3951 37.1734 26.1921 40.6153C24.6087 43.0935 22.681 45.2963 20.2027 46.8796C17.6554 48.5318 14.9017 49.4267 11.8725 49.4267C6.5715 49.3578 2.16547 45.9159 1.20165 40.4088C1.13281 40.1334 1.20165 39.8581 0.995117 39.6516C0.995117 38.8943 0.995117 38.0683 0.995117 37.311C1.20165 36.9668 1.13281 36.5538 1.20165 36.1408C1.82125 32.3546 3.95542 29.6011 7.05341 27.4671C8.15492 26.7099 9.39411 26.0215 10.7022 25.5396C11.5971 25.1954 12.2856 25.4708 12.9052 26.0903C13.5248 26.7099 13.5936 27.6048 13.2494 28.362C13.0429 28.8439 12.6298 29.1192 12.1479 29.3257C10.4268 30.0141 8.9122 30.909 7.60416 32.2858C5.81421 34.2133 4.85039 36.4161 5.05693 39.032C5.40115 43.3688 8.70567 45.7782 12.6986 45.3652C16.7604 44.9521 19.7896 42.8181 21.9926 39.445C23.8514 36.6226 25.5037 33.7314 27.0182 30.7025C27.0871 30.5648 27.0871 30.496 27.0871 30.3583C27.1559 30.3583 27.1559 30.3583 27.1559 30.3583C27.1559 30.2895 27.1559 30.2895 27.0871 30.3583Z" fill="#CCCCCC"/>
<path d="M140.335 16.728C141.506 15.6954 142.607 14.5252 143.846 13.6303C145.154 12.6665 146.531 11.9781 148.184 11.8405C150.387 11.7028 152.108 13.4237 152.383 15.5577C152.59 17.4164 152.108 19.0685 151.35 20.7206C150.524 22.5793 149.423 24.3003 148.321 26.0901C147.22 27.9487 146.049 29.7385 145.223 31.7348C145.086 32.079 144.948 32.4232 144.948 32.8363C144.81 33.6623 145.361 34.213 146.187 34.1442C146.669 34.1442 147.151 33.8689 147.564 33.6623C149.767 32.2856 151.557 30.4958 153.347 28.5683C155.894 25.7459 158.028 22.5793 160.3 19.6192C161.746 17.7606 163.123 15.8331 164.431 13.9056C164.637 13.5614 164.844 13.1484 164.982 12.8042C165.395 11.7028 166.565 11.1521 167.667 11.5651C168.768 11.9093 169.25 13.0795 168.906 14.181C168.63 15.0759 168.148 15.8331 167.598 16.5903C165.877 19.1374 163.949 21.5467 162.09 24.0249C160.369 26.2966 158.786 28.7059 157.271 31.1841C156.996 31.5972 156.789 32.0102 156.651 32.4921C156.445 33.1805 156.789 33.5935 157.478 33.4558C158.579 33.3181 159.612 32.7674 160.576 32.2167C163.261 30.7023 165.601 28.7748 167.804 26.6408C172.073 22.5105 175.652 17.8983 179.164 13.1484C179.439 12.7354 179.783 12.3223 180.059 11.9781C180.747 11.0832 181.917 10.9455 182.812 11.6339C183.776 12.3223 183.983 13.4926 183.363 14.3186C180.678 18.0359 178.406 22.0286 176.066 25.9524C173.312 30.6334 170.558 35.3145 167.322 39.7201C166.29 41.0969 165.257 42.336 164.087 43.5751C163.949 43.7128 163.811 43.7816 163.811 43.9882C163.742 43.9882 163.742 43.9882 163.674 43.9882V44.057C163.742 44.057 163.742 44.057 163.742 43.9882C165.05 43.4374 166.221 42.7491 167.391 42.0607C171.591 39.5825 175.171 36.2782 178.613 32.8363C181.435 29.945 183.983 26.8473 186.392 23.6119C186.736 23.1988 187.081 22.7858 187.631 22.717C188.32 22.5793 188.733 22.9923 188.526 23.7496C188.458 24.0249 188.32 24.3003 188.113 24.5068C184.189 29.7385 180.127 34.8326 175.584 39.5825C173.243 42.0607 170.833 44.4012 168.011 46.2598C164.637 48.6003 160.851 49.7018 156.72 49.4953C153.898 49.3576 151.35 48.4627 149.354 46.3975C148.734 45.778 148.252 45.0207 148.046 44.1258C147.771 42.5425 149.216 41.1658 150.731 41.5788C151.764 41.8541 152.521 42.5425 153.278 43.2309C153.553 43.5063 153.829 43.7816 154.104 44.1258C154.311 44.47 154.655 44.5389 154.999 44.5389C156.032 44.5389 156.858 44.057 157.684 43.5063C159.543 42.2672 161.058 40.6151 162.503 38.8252C164.775 36.0717 166.703 33.0428 168.562 30.0139C168.63 29.8762 168.699 29.7385 168.768 29.532C168.837 29.4632 168.906 29.4632 168.837 29.3255C168.837 29.3255 168.768 29.3943 168.699 29.3943C167.322 30.7023 165.945 32.079 164.5 33.3181C162.779 34.6949 161.058 36.0717 158.992 36.9666C156.651 37.9992 154.38 37.4485 153.003 35.5898C152.796 35.3145 152.659 35.0391 152.521 34.6949C152.452 34.4196 152.383 34.0754 152.314 33.7312C152.108 33.8 151.97 34.0065 151.832 34.1442C150.593 35.4521 149.216 36.6224 147.564 37.4485C144.948 38.6876 142.125 37.7238 140.955 35.1768C140.267 33.7312 140.473 32.2856 140.886 30.8399C141.437 28.9125 142.47 27.2603 143.502 25.5394C144.604 23.6807 145.774 21.8909 146.807 20.0323C147.289 19.1374 147.702 18.1736 147.977 17.141C148.046 16.8657 148.115 16.5215 147.977 16.2461C147.702 15.4889 147.289 15.2824 146.531 15.4889C145.361 15.8331 144.397 16.5215 143.433 17.2787C140.886 19.3439 138.752 21.8221 136.755 24.3691C133.589 28.3618 130.835 32.6986 128.15 37.0354C127.462 38.2057 126.222 38.4122 125.121 37.655C124.57 37.242 124.364 36.6912 124.295 36.0717C124.295 35.934 124.364 35.7963 124.226 35.7275C124.088 35.6587 124.019 35.7963 123.882 35.8652C122.987 36.5536 122.023 37.1043 120.99 37.5173C118.443 38.5499 115.965 36.7601 115.483 34.6261C115.207 33.5247 115.138 32.4921 115.276 31.3218C115.07 31.3907 114.932 31.5283 114.863 31.666C113.28 33.7312 111.559 35.5898 109.355 37.1043C107.084 38.6876 104.743 37.9303 103.228 36.4159C102.333 35.521 102.127 34.3507 101.989 33.1805C101.989 32.8363 101.989 32.4921 101.92 32.2167C101.714 32.2856 101.645 32.4921 101.576 32.6298C100.268 34.4196 98.8912 36.1405 96.9635 37.242C95.449 38.1369 93.8656 38.3434 92.2133 37.5173C91.5937 37.242 91.1118 36.7601 90.8364 36.2094C89.8726 34.213 89.7349 32.1479 90.2168 30.0139C90.2857 29.7385 90.4233 29.3943 90.3545 29.0501C90.0791 29.3943 89.8726 29.7385 89.6661 30.0827C88.2203 32.4921 86.5681 34.6949 84.2962 36.347C83.3324 37.0354 82.3686 37.655 81.1294 37.8615C78.1691 38.4122 75.4153 36.6224 74.5892 33.6623C74.3138 32.6298 74.3138 31.5283 74.4515 30.4958C74.4515 30.2204 74.5892 29.945 74.4515 29.6697C74.4515 29.6697 74.4515 29.6697 74.5203 29.6697C74.5203 29.6697 74.5203 29.6697 74.4515 29.6697C73.2811 30.9088 72.0419 32.1479 70.8027 33.2493C68.5997 35.1768 66.1902 36.8289 63.2987 37.655C61.3711 38.2057 59.3746 38.2057 57.3781 37.7927C54.8309 37.242 52.9032 35.1079 52.559 32.4232C52.146 29.7385 52.6967 27.1915 53.7982 24.7821C55.7259 20.3076 58.6173 16.4526 62.6103 13.5614C64.1937 12.3912 65.9836 11.5651 67.9113 11.2209C71.3535 10.6702 75.0711 13.2172 74.5203 17.4852C74.1073 20.996 70.665 25.7459 65.846 26.5719C63.2299 27.0538 60.8892 26.4343 58.755 24.9198C58.4108 24.6445 58.2731 24.7821 58.1354 25.1263C57.3781 26.7785 56.6897 28.4994 56.6208 30.3581C56.6208 30.9088 56.6208 31.3907 56.7585 31.9414C57.1027 33.387 58.4796 34.4196 60.1319 34.4884C62.1284 34.5572 63.9183 33.9377 65.7083 33.1116C70.3208 30.8399 74.0384 27.5357 77.1364 23.4054C78.3756 21.7532 79.4771 19.9634 80.854 18.449C83.057 16.0396 85.4666 13.9745 88.4269 12.5288C90.4233 11.5651 92.4887 10.9455 94.6917 11.1521C96.3439 11.2897 97.8585 11.8404 99.2354 12.9419C99.7862 13.3549 100.13 13.9056 99.9927 14.6628C99.855 15.4201 99.1666 15.9019 98.4093 15.6266C98.2716 15.5577 98.065 15.4889 97.9274 15.4201C96.1374 14.0433 94.2098 14.1121 92.2821 14.9382C90.0103 15.8331 88.0826 17.2787 86.3615 18.9308C83.6766 21.4779 81.3359 24.3003 79.6836 27.6734C78.9952 28.9813 78.5133 30.3581 78.4444 31.8037C78.3756 32.9739 78.9264 33.8689 79.959 34.0065C80.5098 34.0754 80.9917 33.8689 81.4736 33.6623C82.8505 32.9739 84.0897 31.9414 85.1223 30.8399C88.2892 27.6734 90.9052 24.0249 93.1771 20.1011C93.3148 19.8257 93.4525 19.5504 93.659 19.275C94.2786 18.3113 95.449 18.0359 96.4816 18.6555C97.4454 19.275 97.7208 20.4453 97.1701 21.409C96.2751 22.9235 95.449 24.4379 94.7605 26.0901C94.0721 27.811 93.4525 29.532 93.246 31.4595C93.1771 32.079 93.1771 32.6986 93.3836 33.3181C93.5213 33.8 93.7967 33.9377 94.3475 33.8689C95.3113 33.7312 96.0686 33.2493 96.8258 32.6298C99.3042 30.4958 101.507 28.1552 103.228 25.4017C106.946 19.4816 110.595 13.4926 114.175 7.50361C115.07 5.92032 115.896 4.33703 116.446 2.54722C116.515 2.3407 116.584 2.06535 116.584 1.78999C116.722 0.619732 117.823 -0.137494 118.925 0.000183463C120.095 0.2067 120.852 1.23928 120.646 2.47838C120.302 4.54354 119.476 6.40219 118.512 8.192C116.309 12.1158 113.83 15.9019 111.49 19.7569C109.493 23.0612 107.634 26.5031 106.464 30.2204C106.189 30.9776 105.982 31.8037 105.982 32.6298C105.982 33.7312 106.464 34.0754 107.566 33.7312C109.011 33.2493 110.113 32.2856 111.214 31.3218C113.83 29.0501 115.896 26.3654 117.892 23.6119C118.581 22.6481 118.994 21.4779 119.613 20.3765C121.472 17.0722 123.4 13.8368 125.327 10.5325C125.396 10.3948 125.534 10.2572 125.534 10.0506C124.226 10.1195 122.987 10.2572 121.816 10.8079C121.541 10.9455 121.266 11.0144 120.99 11.0144C120.646 11.0144 120.233 10.9455 120.026 10.6014C119.82 10.2572 119.958 9.84413 120.164 9.56877C120.439 9.22458 120.715 9.01806 121.128 8.81154C122.436 8.192 123.813 7.91664 125.19 7.71012C125.74 7.57245 126.36 7.50361 126.98 7.43477C127.186 7.43477 127.324 7.29709 127.393 7.15941C128.425 5.30077 129.389 3.44212 130.009 1.37696C130.353 0.275538 131.454 -0.34401 132.487 -0.0686553C133.589 0.275538 134.208 1.37696 133.864 2.54722C133.589 3.64864 133.107 4.68122 132.625 5.7138C132.487 5.92032 132.418 6.19567 132.281 6.47103C132.831 6.33335 133.176 6.12683 133.589 5.92032C133.933 5.7138 134.208 5.50728 134.552 5.36961C135.585 4.8189 136.687 5.02541 137.169 5.85148C137.719 6.67754 137.444 7.8478 136.549 8.46735C135.447 9.29342 134.208 9.77529 132.831 9.9818C132.074 10.0506 131.317 10.1883 130.56 10.1883C130.353 10.1883 130.215 10.1883 130.146 10.3948C127.393 15.4889 124.088 20.3076 121.61 25.5394C120.646 27.5357 119.82 29.532 119.407 31.666C119.338 32.079 119.269 32.5609 119.407 32.9739C119.544 33.5935 119.82 33.8 120.439 33.7312C120.99 33.6623 121.472 33.387 121.954 33.1116C123.744 32.079 125.19 30.6334 126.635 29.1878C128.15 27.6045 129.596 25.8836 130.904 24.0937C131.936 22.6481 132.763 20.996 133.658 19.4127C136.411 14.4563 139.165 9.49993 141.506 4.33703C141.988 3.37328 142.332 2.3407 142.676 1.30812C142.951 0.413216 143.846 -0.206333 144.741 -0.0686553C145.705 0.000183448 146.463 0.75741 146.6 1.65231C146.669 2.06535 146.531 2.40954 146.394 2.82257C145.705 4.88773 144.673 6.88406 143.709 8.88038C142.47 11.3586 141.23 13.8368 139.922 16.315C139.853 16.3838 139.853 16.4526 139.785 16.5903C139.716 16.6592 139.647 16.728 139.716 16.7968C139.647 16.7968 139.647 16.7968 139.647 16.8657C139.647 16.8657 139.647 16.7968 139.716 16.7968C140.267 16.7968 140.267 16.728 140.335 16.728ZM64.6756 22.7858C64.7444 22.7858 65.0198 22.7858 65.2264 22.717C67.2228 22.3728 68.6686 21.2714 69.8389 19.6881C70.5962 18.6555 71.2846 17.4852 71.2846 16.1773C71.3535 15.1447 70.5962 14.4563 69.4947 14.5252C68.9439 14.594 68.3932 14.7317 67.9113 15.007C65.0887 16.3838 62.8857 18.5178 61.1645 21.0648C61.0269 21.2025 61.0269 21.3402 61.2334 21.4779C62.1972 22.2351 63.2987 22.7858 64.6756 22.7858Z" fill="#CCCCCC"/>
<path d="M76.3797 72.2119C77.137 69.2519 78.2385 66.5672 79.2023 63.8136C79.8908 61.8173 80.648 59.8898 81.3365 57.8935C81.4053 57.6181 81.543 57.4804 81.8872 57.4804C83.4707 57.4804 84.9852 57.4804 86.5687 57.4804C86.9129 57.4804 87.0506 57.5493 86.9817 57.8935C86.9817 58.1 86.9817 58.2377 86.9817 58.4442C86.9817 59.0637 86.7752 59.2702 86.1556 59.3391C85.949 59.3391 85.8114 59.4079 85.6048 59.4079C84.9164 59.4768 84.9164 59.4768 84.9164 60.234C84.9164 64.4332 84.9164 68.7012 84.9164 72.9003C84.9164 73.3822 85.0541 73.5199 85.4671 73.5199C85.8114 73.5199 86.0867 73.5887 86.431 73.5887C87.0506 73.6576 87.1883 73.7952 87.2571 74.4148C87.2571 74.5525 87.2571 74.759 87.2571 74.8967C87.2571 75.3097 87.1882 75.4474 86.7063 75.4474C84.641 75.4474 82.6445 75.4474 80.5792 75.4474C80.235 75.4474 80.0284 75.3785 80.1661 74.9655C80.1661 74.8966 80.1661 74.8966 80.1661 74.8278C80.3727 73.7952 80.3727 73.7952 81.4053 73.5199C81.543 73.5199 81.6807 73.451 81.7496 73.451C82.0938 73.451 82.2315 73.3134 82.2315 72.9003C82.2315 68.9765 82.2315 65.0527 82.2315 61.1289C82.2315 60.9912 82.2315 60.8535 82.2315 60.7159C81.8184 61.955 81.4742 63.1252 80.9923 64.3643C79.6842 67.8751 78.445 71.3859 77.137 74.8967C76.8616 75.6539 76.0355 75.9292 75.347 75.585C75.1405 75.5162 75.0717 75.3785 75.0028 75.172C73.4194 70.6286 71.6294 66.0853 70.1837 61.4731C70.1149 61.2666 70.046 61.0601 69.9772 60.7847C69.8395 60.8535 69.9083 60.9912 69.9083 61.1289C69.9083 65.0527 69.9083 69.0454 69.9083 72.9692C69.9083 73.3134 69.9772 73.451 70.3214 73.451C70.3902 73.451 70.4591 73.451 70.5279 73.451C71.7671 73.5199 71.6983 73.9329 71.7671 75.0343C71.7671 75.2408 71.6983 75.3097 71.4918 75.3097C69.7018 75.3097 67.843 75.3097 66.0531 75.3097C65.8465 75.3097 65.7088 75.2408 65.7777 75.0343C65.8465 74.6901 65.9154 74.3459 65.9842 74.0017C66.0531 73.7264 66.2596 73.5887 66.535 73.5887C66.8103 73.5199 67.0169 73.451 67.2923 73.451C67.7742 73.451 67.843 73.2445 67.843 72.7626C67.843 68.4258 67.843 64.089 67.843 59.821C67.843 59.4079 67.7742 59.2014 67.3611 59.2703C67.2923 59.2703 67.2234 59.2703 67.1546 59.2703C65.8465 59.2014 65.9154 58.9261 65.9154 57.5493C65.9154 57.3428 65.9842 57.2739 66.1907 57.2739C67.843 57.2739 69.5641 57.2739 71.2164 57.2739C71.4229 57.2739 71.4918 57.3428 71.5606 57.4804C73.0752 61.955 74.7963 66.3606 76.1043 70.904C76.242 71.5235 76.3109 71.7989 76.3797 72.2119Z" fill="#CCCCCC"/>
<path d="M28.6019 65.1907C29.9099 65.1907 31.1491 65.1907 32.4572 65.1907C32.7326 65.1907 32.8702 65.1219 32.8702 64.8465C32.8702 63.1944 32.8702 61.5422 32.8702 59.8901C32.8702 59.6148 32.7326 59.4771 32.4572 59.5459C32.3195 59.5459 32.113 59.5459 31.9753 59.4771C31.0115 59.3394 30.5984 58.651 30.8738 57.6873C30.9426 57.4808 31.0803 57.5496 31.1491 57.5496C33.2145 57.5496 35.2798 57.5496 37.2763 57.5496C37.5517 57.5496 37.6205 57.6184 37.6205 57.8938C37.6205 58.1003 37.6205 58.3068 37.6205 58.5133C37.5517 59.2017 37.414 59.4082 36.7255 59.4771C36.519 59.4771 36.2436 59.5459 36.0371 59.5459C35.624 59.5459 35.4863 59.6836 35.4863 60.0966C35.4863 64.4335 35.4863 68.7703 35.4863 73.0383C35.4863 73.4513 35.5552 73.589 35.9682 73.589C36.3125 73.589 36.6567 73.6579 37.0009 73.7267C37.6205 73.7955 37.7582 74.0021 37.827 74.6216C37.8959 75.5853 37.8959 75.5853 36.9321 75.5853C35.0044 75.5853 33.0768 75.5853 31.1491 75.5853C30.8049 75.5853 30.6672 75.5165 30.7361 75.1035V75.0346C30.8738 73.9332 31.0115 73.8644 32.113 73.6579C32.8014 73.5202 32.8014 73.5202 32.8014 72.9006C32.8014 71.1797 32.8014 69.3899 32.8014 67.6689C32.8014 67.3247 32.6637 67.2559 32.3195 67.2559C29.7723 67.2559 27.225 67.2559 24.6778 67.2559C24.3336 67.2559 24.2647 67.3247 24.2647 67.6689C24.2647 69.5275 24.2647 71.3173 24.2647 73.176C24.2647 73.5202 24.3336 73.589 24.6778 73.6579C25.022 73.6579 25.3662 73.7267 25.7793 73.7955C26.1924 73.8644 26.3989 74.0709 26.4677 74.4839C26.6743 75.5853 26.6054 75.6542 25.5039 75.6542C23.5763 75.6542 21.6486 75.6542 19.7898 75.6542C19.3768 75.6542 19.3079 75.5165 19.3768 75.1723C19.3768 75.0346 19.4456 74.897 19.4456 74.8281C19.5145 74.2086 19.8587 73.8644 20.5471 73.7955C21.6486 73.6579 21.6486 73.589 21.6486 72.4876C21.6486 68.3573 21.6486 64.2269 21.6486 60.1655C21.6486 59.8213 21.5798 59.5459 21.1667 59.6147C21.0979 59.6147 21.029 59.6147 20.9602 59.6147C19.5833 59.5459 19.7898 59.2017 19.721 58.0315C19.721 57.7561 19.7898 57.6873 20.0652 57.6873C22.0617 57.6873 24.0582 57.6873 26.0547 57.6873C26.33 57.6873 26.4677 57.7561 26.3989 58.0315C26.3989 58.238 26.3989 58.4445 26.3989 58.651C26.33 59.2706 26.1924 59.4771 25.5728 59.5459C25.1597 59.6148 24.6778 59.5459 24.4712 59.7524C24.1959 59.9589 24.4024 60.5097 24.4024 60.8538C24.4024 62.1618 24.4024 63.4697 24.4024 64.7777C24.4024 65.1907 24.4712 65.3284 24.9532 65.3284C26.0547 65.1219 27.2939 65.1907 28.6019 65.1907Z" fill="#CCCCCC"/>
<path d="M121.679 66.5675C121.679 64.4334 122.023 62.5748 122.987 60.8538C124.433 58.4445 126.567 57.2054 129.321 57.0677C130.904 56.9989 132.35 57.2054 133.795 57.8938C135.792 58.9264 136.962 60.5785 137.582 62.6436C138.339 65.3972 138.339 68.1507 137.307 70.8355C136.067 74.3462 133.245 76.136 129.527 75.9984C127.393 75.9295 125.534 75.3788 124.02 73.7955C122.78 72.4876 122.161 70.8355 121.817 69.0457C121.748 68.2196 121.61 67.3247 121.679 66.5675ZM135.172 65.8102C135.172 64.9153 134.966 63.4697 134.277 62.0929C133.314 60.1654 131.868 58.9952 129.596 59.1329C127.393 59.2017 125.947 60.372 125.19 62.3683C124.157 65.2595 124.226 68.2196 125.465 71.1108C126.291 73.0383 127.875 74.0709 130.009 74.002C132.143 73.9332 133.589 72.8318 134.415 70.8355C134.966 69.3898 135.172 67.9442 135.172 65.8102Z" fill="#CCCCCC"/>
<path d="M51.8022 75.5162C49.8058 75.5162 47.7404 75.5162 45.7439 75.5162C45.3309 75.5162 45.262 75.3786 45.3309 75.0344C45.3997 74.8278 45.3997 74.6213 45.4686 74.4148C45.5374 74.0018 45.8128 73.7953 46.2258 73.7264C46.5701 73.6576 46.9143 73.5887 47.2585 73.5199C47.5339 73.5199 47.5339 73.3822 47.5339 73.1757C47.5339 72.5562 47.5339 71.9366 47.5339 71.3171C47.5339 67.5309 47.5339 63.7448 47.5339 60.0275C47.5339 59.6145 47.465 59.408 47.052 59.4768C46.9831 59.4768 46.9831 59.4768 46.9143 59.4768C45.7439 59.3391 45.4686 58.9949 45.6063 57.7558C45.6751 57.4805 45.8128 57.4805 46.0193 57.4805C47.465 57.4805 48.9108 57.4805 50.3565 57.4805C52.766 57.4805 55.1756 57.4805 57.5851 57.4805C57.9294 57.4805 57.9982 57.5493 57.9982 57.8935C57.9982 58.9949 57.9982 60.0963 57.9982 61.1978C57.9982 61.542 57.8605 61.6108 57.5851 61.542C56.2083 61.3354 56.2083 61.4043 56.0017 60.0275C55.9329 59.3391 55.9329 59.3391 55.2444 59.3391C53.7299 59.3391 52.2153 59.3391 50.7007 59.3391C50.3565 59.3391 50.2188 59.408 50.2188 59.7522C50.2188 61.4731 50.2188 63.2629 50.2188 64.9839C50.2188 65.2593 50.2877 65.3969 50.6319 65.3969C51.8711 65.3969 53.1103 65.3969 54.3495 65.3969C54.6248 65.3969 54.7625 65.3281 54.7625 64.9839C54.9002 64.089 55.6575 63.6071 56.5525 63.8136C56.759 64.0202 56.759 64.089 56.759 64.2267C56.759 65.7411 56.759 67.2556 56.759 68.77C56.759 68.9765 56.6902 69.0454 56.4836 69.0454C56.3459 69.0454 56.2083 69.0454 56.0706 69.0454C55.0379 68.9765 54.9002 68.9077 54.7625 67.8751C54.6937 67.5309 54.6248 67.4621 54.2806 67.4621C53.0414 67.4621 51.8711 67.4621 50.6319 67.4621C50.3565 67.4621 50.2188 67.5309 50.2188 67.8751C50.2188 69.6649 50.2188 71.4547 50.2188 73.2446C50.2188 73.5199 50.2877 73.6576 50.6319 73.6576C52.353 73.6576 54.0052 73.6576 55.7264 73.6576C56.0017 73.6576 56.0706 73.5887 56.1394 73.3134C56.2083 72.8315 56.2771 72.2808 56.346 71.7989C56.346 71.5924 56.4836 71.4547 56.6902 71.4547C57.1032 71.3859 57.5163 71.3859 57.9294 71.3171C58.2047 71.3171 58.3424 71.3859 58.3424 71.6613C58.3424 72.8315 58.3424 74.0706 58.3424 75.2409C58.3424 75.5851 58.2047 75.6539 57.9294 75.6539C55.864 75.5162 53.7987 75.5162 51.8022 75.5162Z" fill="#CCCCCC"/>
<path d="M98.5473 75.5162C97.3769 75.5162 96.2066 75.5162 95.1051 75.5162C94.7609 75.5162 94.6232 75.4473 94.692 75.1031C94.7609 74.8278 94.8297 74.5524 94.8985 74.2082C94.9674 73.9329 95.1739 73.7952 95.4493 73.7264C95.7247 73.6575 95.9312 73.5887 96.2066 73.5887C96.9639 73.451 96.9639 73.451 96.9639 72.6938C96.9639 68.4946 96.9639 64.2266 96.9639 60.0275C96.9639 59.6833 96.895 59.4768 96.5508 59.5456C96.482 59.5456 96.4131 59.5456 96.3443 59.5456C94.9674 59.6833 95.0362 58.9949 95.0362 57.8935C95.0362 57.6869 95.1051 57.6181 95.3116 57.6181C98.0654 57.4804 100.819 57.1362 103.573 57.5493C105.294 57.8246 106.74 58.513 107.704 60.0963C109.7 63.3317 107.841 67.5309 103.986 68.4258C102.678 68.7011 101.37 68.6323 99.993 68.4946C99.6488 68.4946 99.58 68.4946 99.58 68.8388C99.58 70.2844 99.58 71.7989 99.58 73.2445C99.58 73.5199 99.6488 73.6575 99.993 73.6575C100.475 73.6575 100.957 73.7264 101.439 73.7952C102.127 73.864 102.334 74.0017 102.403 74.6901C102.54 75.6539 102.54 75.6539 101.576 75.6539C100.613 75.5162 99.58 75.5162 98.5473 75.5162ZM99.6488 62.9187C99.6488 64.0201 99.6488 65.0527 99.6488 66.1541C99.6488 66.4295 99.7176 66.4983 99.993 66.4983C100.957 66.5671 101.852 66.636 102.816 66.5671C104.33 66.4983 105.225 65.6722 105.569 64.2266C105.638 63.9513 105.638 63.6071 105.707 63.3317C105.914 61.5419 104.95 60.0963 103.16 59.5456C102.058 59.2014 101.026 59.2702 99.9242 59.3391C99.6488 59.3391 99.7176 59.5456 99.7176 59.6833C99.6488 60.7847 99.6488 61.8173 99.6488 62.9187Z" fill="#CCCCCC"/>
<path d="M164.5 75.5162C162.434 75.5162 160.369 75.5162 158.373 75.5162C158.028 75.5162 157.891 75.4474 157.96 75.0344C158.235 73.7953 158.235 73.7953 159.474 73.5888C160.231 73.4511 160.231 73.4511 160.231 72.6939C160.231 68.4947 160.231 64.2267 160.231 60.0275C160.231 59.6145 160.163 59.408 159.75 59.4768C159.681 59.4768 159.681 59.4768 159.612 59.4768C158.304 59.3391 158.304 59.2014 158.304 57.8247C158.304 57.6182 158.373 57.5493 158.579 57.5493C160.713 57.5493 162.916 57.5493 165.051 57.5493C165.257 57.5493 165.326 57.687 165.326 57.8247C165.326 58.1689 165.326 58.5131 165.257 58.8573C165.188 59.2014 164.913 59.3391 164.569 59.408C164.156 59.4768 163.743 59.5456 163.329 59.5456C162.916 59.5456 162.848 59.6833 162.848 60.0275C162.848 63.3318 162.848 66.7049 162.848 70.0091C162.848 71.0417 162.848 72.0743 162.848 73.1757C162.848 73.4511 162.916 73.5888 163.261 73.5888C164.982 73.5888 166.703 73.5888 168.424 73.5888C168.768 73.5888 168.837 73.4511 168.837 73.1757C168.837 72.6939 168.975 72.1431 169.044 71.6613C169.112 71.3171 169.25 71.1106 169.594 71.0417C170.007 70.9729 170.352 70.9729 170.765 70.904C170.971 70.904 171.109 70.9729 171.109 71.1794C171.109 72.5562 171.109 73.933 171.109 75.2409C171.109 75.5851 170.902 75.5851 170.696 75.5851C168.699 75.5162 166.634 75.5162 164.5 75.5162Z" fill="#CCCCCC"/>
<path d="M145.43 66.4983C145.43 64.2955 145.43 62.0927 145.43 59.8898C145.43 59.5456 145.361 59.4079 145.017 59.4079C144.948 59.4079 144.879 59.4079 144.81 59.4079C143.296 59.2703 143.571 58.9949 143.502 57.8247C143.502 57.6181 143.571 57.4116 143.846 57.4116C145.843 57.4116 147.908 57.4116 149.905 57.4116C150.18 57.4116 150.318 57.5493 150.249 57.8247C150.249 58.0312 150.249 58.3065 150.18 58.513C150.111 59.0637 149.905 59.2703 149.354 59.2703C149.079 59.2703 148.872 59.3391 148.597 59.3391C148.046 59.2703 148.046 59.5456 148.046 60.0275C148.046 64.2955 148.046 68.6323 148.046 72.9003C148.046 73.3134 148.184 73.451 148.597 73.451C148.941 73.451 149.216 73.5199 149.561 73.5887C150.249 73.6576 150.387 73.8641 150.455 74.5525C150.524 75.4474 150.524 75.4474 149.629 75.4474C147.633 75.4474 145.568 75.4474 143.571 75.4474C143.158 75.4474 143.089 75.3097 143.158 74.9655C143.158 74.8967 143.227 74.759 143.227 74.6901C143.433 73.7952 143.502 73.7264 144.397 73.5887C145.43 73.3822 145.43 73.3822 145.43 72.3496C145.43 70.491 145.43 68.4947 145.43 66.4983Z" fill="#CCCCCC"/>
<path d="M27.0869 30.359C27.0869 30.2892 27.1563 30.2892 27.1563 30.359C27.2258 30.359 27.1563 30.359 27.0869 30.359C27.1563 30.359 27.0869 30.359 27.0869 30.359Z" fill="#CCCCCC"/>
<path d="M140.336 16.728C140.267 16.7969 140.267 16.7969 140.198 16.8657C140.13 16.7969 140.198 16.728 140.267 16.6592C140.267 16.6592 140.336 16.6592 140.336 16.728Z" fill="#CCCCCC"/>
<path d="M169.044 29.4634C169.113 29.4634 169.182 29.3945 169.182 29.3945C169.251 29.4634 169.182 29.5322 169.113 29.601C169.113 29.5322 169.113 29.5322 169.044 29.4634Z" fill="#CCCCCC"/>
<path d="M163.951 43.9194C163.951 43.9903 163.881 43.9903 163.881 43.9903C163.881 43.9903 163.881 43.9903 163.881 43.9194H163.951Z" fill="#CCCCCC"/>
<path d="M140.2 16.867C140.129 16.867 140.2 16.867 140.2 16.867C140.129 16.7949 140.129 16.867 140.2 16.867Z" fill="#CCCCCC"/>
</g>
<defs>
<clipPath id="clip0_2041_3">
<rect width="187.876" height="76.0668" fill="white" transform="translate(0.995117)"/>
</clipPath>
</defs>
</svg>
